<svg xmlns="http://www.w3.org/2000/svg" xmlns:xlink="http://www.w3.org/1999/xlink" preserveAspectRatio="xMidYMid meet" version="1.0" viewBox="93.9 95.7 296.2 299.0" zoomAndPan="magnify" style="fill: rgb(0, 0, 0);" original_string_length="2748" width="226.76300991309554px" height="229.2640725224312px"><g id="__id66_spd89r9bve"><path d="M381.14,261.01c6.31-41.23-19.65-79.93-59.03-90.47c-9.55-27.43-33.55-48.81-64.26-53.51 c-33.29-5.1-64.93,10.85-81.44,37.91c-38.87,0.52-72.8,29.03-78.88,68.72c-3.64,23.75,3.45,46.65,17.62,63.83 c-0.68,2.64-1.24,5.33-1.66,8.08c-6.77,44.22,23.59,85.56,67.81,92.33c22.37,3.42,43.99-2.66,60.78-15.22 c10.33,7.76,22.67,13.16,36.34,15.26c44.22,6.77,85.56-23.59,92.33-67.81c1.51-9.85,1.16-19.55-0.76-28.77 C375.55,282.36,379.43,272.12,381.14,261.01z" style="fill: rgb(149, 172, 204);"/></g><g id="__id67_spd89r9bve"><path d="M383.8,259.01c6.31-41.23-19.65-79.93-59.03-90.47c-9.55-27.43-33.55-48.81-64.26-53.51 c-33.29-5.1-64.93,10.85-81.44,37.91c-38.87,0.52-72.8,29.03-78.88,68.72c-3.64,23.75,3.45,46.65,17.62,63.83 c-0.68,2.64-1.24,5.33-1.66,8.08c-6.77,44.22,23.59,85.56,67.81,92.33c22.37,3.42,43.99-2.66,60.78-15.22 c10.33,7.76,22.67,13.16,36.34,15.26c44.22,6.77,85.56-23.59,92.33-67.81c1.51-9.85,1.16-19.55-0.76-28.77 C378.21,280.36,382.1,270.12,383.8,259.01z" style="fill: rgb(219, 117, 146);"/></g><g><g stroke="#fff" stroke-linecap="round" stroke-miterlimit="10" stroke-width="3" style="fill: none;"><path d="M320.57,180.48c-1.87-0.67-3.78-1.27-5.73-1.79c-0.66-1.89-1.4-3.75-2.21-5.58" style="fill: inherit;"/><path d="M307.12,162.97c-10.77-16.49-28.24-28.51-49.24-31.72c-25.36-3.88-49.64,6.01-65.26,24.09" stroke-dasharray="11.5601,11.5601" style="fill: inherit;"/><path d="M189.02,159.86c-1.18,1.61-2.29,3.27-3.34,4.99c-2.01,0.03-4.01,0.14-5.99,0.33" style="fill: inherit;"/><path d="M168.39,167.22c-26.79,7.08-48.18,29.42-52.65,58.56c-2.58,16.88,0.94,33.28,8.91,46.96" stroke-dasharray="11.4833,11.4833" style="fill: inherit;"/><path d="M127.75,277.58c1.14,1.64,2.35,3.24,3.62,4.78c-0.5,1.92-0.92,3.88-1.26,5.87" style="fill: inherit;"/><path d="M129.07,300.88c0.19,34.7,25.56,65.08,60.95,70.5c15.45,2.37,30.5-0.39,43.43-6.99" stroke-dasharray="12.7039,12.7039" style="fill: inherit;"/><path d="M238.95,361.27c1.7-1.06,3.35-2.19,4.95-3.39c1.59,1.2,3.24,2.33,4.94,3.4" style="fill: inherit;"/><path d="M259.32,366.71c5.27,2.2,10.89,3.8,16.79,4.7c39.2,6,75.85-20.91,81.85-60.11c1.34-8.73,1.03-17.33-0.67-25.5 c4.93-7.97,8.38-17.05,9.89-26.9c4.97-32.47-12.65-63.19-41.13-76.18" stroke-dasharray="11.8155,11.8155" style="fill: inherit;"/></g></g><g id="__id68_spd89r9bve"><path d="M196.23,104.52c0,0,51.72-4.92,82.76,40.32l-7.69-2.59l-0.23,8.94l-6.47-3.45l0.36,9.25l-7.06-3.76 c0,0-23.47-38.19-66.68-27.97l5.25-7.02l-6.79-2.86l5.76-3.73l-8.59-2.31L196.23,104.52z" style="fill: rgb(253, 246, 210);"/></g><g id="__id69_spd89r9bve"><path d="M207.3,132.27c0,0,36.91-36.56,89.58-21.21l-7.59,2.87l5.48,7.07l-7.19,1.43l6.14,6.94l-7.85,1.56 c0,0-42.34-14.69-69.32,20.58l-0.38-8.76l-7.06,2.08l2.1-6.53l-8.11,3.65L207.3,132.27z" style="fill: rgb(253, 246, 210);"/></g></svg>