<svg xmlns="http://www.w3.org/2000/svg" xmlns:xlink="http://www.w3.org/1999/xlink" preserveAspectRatio="xMidYMid meet" version="1.0" viewBox="-18.8 2.3 325.5 333.0" zoomAndPan="magnify" style="fill: rgb(0, 0, 0);" original_string_length="4495" width="222.61430566611486px" height="227.15745476134168px"><defs><linearGradient xmlns:xlink="http://www.w3.org/1999/xlink" gradientUnits="userSpaceOnUse" id="__id66_snowqtdasg" x1="144.29" x2="415.71" xlink:actuate="onLoad" xlink:show="other" xlink:type="simple" y1="248.43" y2="248.43"><stop offset="0" style="stop-color: rgb(255, 221, 85);"/><stop offset=".5" style="stop-color: rgb(255, 225, 108);"/><stop offset="1" style="stop-color: rgb(255, 223, 98);"/></linearGradient><linearGradient xmlns:xlink="http://www.w3.org/1999/xlink" id="__id67_snowqtdasg" xlink:actuate="onLoad" xlink:show="other" xlink:type="simple"><stop offset="0" style="stop-color: rgb(238, 71, 71);"/><stop offset="1" style="stop-color: red;"/></linearGradient><linearGradient xmlns:xlink="http://www.w3.org/1999/xlink" gradientTransform="translate(163.63 39.481) scale(.38482)" gradientUnits="userSpaceOnUse" id="__id68_snowqtdasg" x1="329.47" x2="355.8" xlink:actuate="onLoad" xlink:href="#__id67_snowqtdasg" xlink:show="other" xlink:type="simple" y1="152.41" y2="179.18"/><linearGradient xmlns:xlink="http://www.w3.org/1999/xlink" gradientTransform="translate(163.63 39.481) scale(.38482)" gradientUnits="userSpaceOnUse" id="__id69_snowqtdasg" x1="315.34" x2="293.47" xlink:actuate="onLoad" xlink:show="other" xlink:type="simple" y1="200.47" y2="250.47"><stop offset="0" style="stop-color: rgb(179, 179, 179);"/><stop offset="1" style="stop-color: rgb(204, 204, 204);"/></linearGradient><radialGradient xmlns:xlink="http://www.w3.org/1999/xlink" cx="372.5" cy="133.08" gradientTransform="matrix(1 0 0 1.1475 0 -19.626)" gradientUnits="userSpaceOnUse" id="__id70_snowqtdasg" r="25.287" xlink:actuate="onLoad" xlink:href="#__id67_snowqtdasg" xlink:show="other" xlink:type="simple"/><radialGradient xmlns:xlink="http://www.w3.org/1999/xlink" cx="372.5" cy="133.08" gradientTransform="matrix(1 0 0 1.1463 0 -19.465)" gradientUnits="userSpaceOnUse" id="__id71_snowqtdasg" r="25.496" xlink:actuate="onLoad" xlink:href="#__id67_snowqtdasg" xlink:show="other" xlink:type="simple"/><filter xmlns:xlink="http://www.w3.org/1999/xlink" color-interpolation-filters="sRGB" id="__id72_snowqtdasg" xlink:actuate="onLoad" xlink:show="other" xlink:type="simple"><feGaussianBlur stdDeviation="1.365"/></filter></defs><g><g id="__id73_snowqtdasg"><path d="m144.96 111.91h271.23c-6.0447 91.587-10.043 181.91 0 272.99-86.705 0.92606-180.71-3.3871-270.47-1.7678z" filter="url(#__id72_snowqtdasg)" opacity=".247" transform="translate(-136.68 -77.898)" style="fill: inherit;"/></g><path d="m144.29 111.65h271.43c-2.1458 88.096-11.867 190.08-1.4286 269.29-90.729 9.5667-181.67-0.23809-270 2.1429z" transform="translate(-136.68 -77.898)" style="fill: url(&quot;#__id66_snowqtdasg&quot;);"/><g id="__id74_snowqtdasg"><path d="m397.34 133.08c0 15.78-11.122 28.571-24.842 28.571s-24.842-12.792-24.842-28.571c0-15.78 11.122-28.571 24.842-28.571s24.842 12.792 24.842 28.571z" opacity=".014" transform="matrix(.47462 .36161 -.26728 .19131 -2.84 -110.04)" style="fill: inherit;"/></g><g stroke="#000" style="fill: none;"><path d="m275.18 127.9 1.7857 1.7857" transform="translate(-136.68 -77.898)" style="fill: inherit;"/><path d="m275.45 129.06 1.3393-1.3393" stroke-linecap="round" stroke-linejoin="round" transform="translate(-136.68 -77.898)" style="fill: inherit;"/></g><path d="m290.88 106.06-15.188 22.406 0.78125 0.59375 17.594-21.375-3.1875-1.625z" stroke="#000" stroke-width=".385" transform="translate(-136.68 -77.898)" style="fill: url(&quot;#__id69_snowqtdasg&quot;);"/><g id="__id75_snowqtdasg"><path d="m282.75 98.394c-19.601 10.314 20.982 34.003 23.501 15.298z" stroke="#000" stroke-width=".385" transform="translate(-136.68 -77.898)" style="fill: rgb(238, 1, 1);"/></g><path d="m397.34 133.08c0 15.78-11.122 28.571-24.842 28.571s-24.842-12.792-24.842-28.571c0-15.78 11.122-28.571 24.842-28.571s24.842 12.792 24.842 28.571z" opacity=".98" stroke="#000" stroke-linecap="round" stroke-linejoin="round" stroke-width=".889" transform="matrix(.47462 .36161 -.26728 .19131 14.48 -129.683)" style="fill: url(&quot;#__id70_snowqtdasg&quot;);"/><path d="m300.93 86.844s-15.258 12.768-14.981 16.355c0.40268 5.2079 7.2248 10.525 12.369 9.6206 4.5089-0.79277 9.6206-21.44 9.6206-21.44z" stroke="#000" stroke-width=".385" transform="translate(-136.68 -77.898)" style="fill: url(&quot;#__id68_snowqtdasg&quot;);"/><path d="m297.75 83.455c-13.33 7.0143 14.269 23.124 15.983 10.404z" stroke="#000" stroke-width=".385" transform="translate(-136.68 -77.898)" style="fill: red;"/><path d="m397.34 133.08c0 15.78-11.122 28.571-24.842 28.571s-24.842-12.792-24.842-28.571c0-15.78 11.122-28.571 24.842-28.571s24.842 12.792 24.842 28.571z" opacity=".98" stroke="#000" stroke-linecap="round" stroke-linejoin="round" stroke-width="1.307" transform="matrix(.32277 .24592 -.18177 .1301 71.58 -96.575)" style="fill: url(&quot;#__id71_snowqtdasg&quot;);"/></g></svg>