<svg xmlns="http://www.w3.org/2000/svg" xmlns:xlink="http://www.w3.org/1999/xlink" preserveAspectRatio="xMidYMid meet" version="1.0" viewBox="1.0 -5.8 510.0 516.8" zoomAndPan="magnify" style="fill: rgb(0, 0, 0);" original_string_length="2821"><g><g><g><g id="__id278_spky86p27"><path d="M350.183,19.943c26.541,25.791,27.145,68.205,1.363,94.746L256,213.014l-95.537-98.326 c-25.791-26.541-25.177-68.954,1.363-94.746C188.039-5.536,230.066-5.355,256,20.744C281.676-5.096,323.689-5.789,350.183,19.943 z" style="fill: rgb(206, 41, 31);"/></g><g id="__id279_spky86p27"><path d="M438.143,248.183V89.469c0-20.109,16.3-36.429,36.429-36.429C494.69,53.041,511,69.35,511,89.469 v178.812c0,15.539-5.787,30.517-16.237,42.007l-87.845,96.629v31.224H302.837V327.358c0-15.758,5.964-30.943,16.684-42.497 l56.662-61.013C398.3,200.035,438.143,215.679,438.143,248.183z" style="fill: rgb(253, 246, 210);"/></g><g id="__id280_spky86p27"><path d="M73.857,248.183c0-32.505,39.853-48.148,61.96-24.334l56.662,61.013 c10.731,11.553,16.684,26.739,16.684,42.497v110.784H105.082v-31.224l-87.834-96.629C6.797,298.798,1,283.821,1,268.282V89.469 c0-20.109,16.3-36.429,36.429-36.429c20.119,0,36.429,16.31,36.429,36.429V248.183z" style="fill: rgb(253, 246, 210);"/></g><g id="__id281_spky86p27"><path d="M209.163,448.551c-5.748,0-10.408-4.66-10.408-10.408V327.358c0-13.184-4.937-25.76-13.902-35.412 l-56.663-61.014c-15.67-16.878-43.925-5.786-43.925,17.252c0,6.618,2.599,13.088,7.433,17.923l41.56,41.57 c4.064,4.066,4.064,10.655-0.002,14.72c-4.066,4.062-10.656,4.062-14.719-0.002l-41.56-41.57 c-8.687-8.689-13.529-20.426-13.529-32.64c0-41.972,51.419-62.199,79.995-31.416l56.661,61.012 c12.553,13.513,19.466,31.121,19.466,49.578v110.785C219.572,443.891,214.912,448.551,209.163,448.551z" style="fill: rgb(244, 140, 167);"/></g><g id="__id282_spky86p27"><path d="M302.837,448.551c-5.748,0-10.408-4.66-10.408-10.408V327.358c0-18.444,6.912-36.05,19.463-49.575 l56.665-61.016c28.576-30.77,79.994-10.578,79.994,31.417c0,12.267-4.864,23.984-13.519,32.641l-41.57,41.57 c-4.066,4.064-10.654,4.064-14.72,0c-4.065-4.065-4.065-10.655,0-14.72l41.57-41.57c4.637-4.637,7.423-11.015,7.423-17.922 c0-23.035-28.243-34.133-43.926-17.251l-56.662,61.012c-8.964,9.66-13.902,22.237-13.902,35.413v110.785 C313.245,443.891,308.585,448.551,302.837,448.551z" style="fill: rgb(244, 140, 167);"/></g><g id="__id283_spky86p27"><path d="M427.735,438.143V511H282.02v-72.857C322.164,438.143,382.149,438.143,427.735,438.143z" style="fill: rgb(252, 120, 145);"/></g><g id="__id284_spky86p27"><path d="M229.98,438.143V511H84.265v-72.857C124.409,438.143,184.394,438.143,229.98,438.143z" style="fill: rgb(252, 120, 145);"/></g></g></g></g></svg>