<svg xmlns="http://www.w3.org/2000/svg" xmlns:xlink="http://www.w3.org/1999/xlink" preserveAspectRatio="xMidYMid meet" version="1.0" viewBox="95.4 125.9 233.3 173.5" zoomAndPan="magnify" style="fill: rgb(0, 0, 0);" original_string_length="5344"><g id="__id270_szjpss7gdm"><path d="M93.369 205.208H331.83299999999997V219.992H93.369z" transform="rotate(23.186 212.602 212.596)" style="fill: rgb(255, 255, 255);"/></g><g id="__id271_szjpss7gdm"><path d="M319.294,268.836c-0.335,0-0.67-0.067-0.984-0.202L99.104,174.751c-1.269-0.543-1.857-2.013-1.314-3.282 l5.821-13.59c0.261-0.609,0.753-1.09,1.369-1.337c0.616-0.246,1.303-0.238,1.914,0.023l219.206,93.883 c1.269,0.543,1.857,2.013,1.314,3.282l-5.821,13.59c-0.261,0.609-0.753,1.09-1.369,1.337 C319.925,268.776,319.609,268.836,319.294,268.836z M103.371,171.14l214.609,91.914l3.852-8.994l-214.609-91.914L103.371,171.14z" style="fill: rgb(219, 117, 146);"/></g><g id="__id272_szjpss7gdm"><path d="M141.686,233.271c-2.236,5.221-8.282,7.641-13.503,5.404l-10.044-4.301 c-5.221-2.236-7.641-8.283-5.404-13.504l36.946-86.264c2.236-5.221,8.282-7.641,13.503-5.404l10.044,4.301 c5.221,2.236,7.641,8.283,5.404,13.504L141.686,233.271z" style="fill: rgb(255, 255, 255);"/></g><g id="__id273_szjpss7gdm"><path d="M132.227,242.009c-1.733,0-3.425-0.348-5.029-1.035l-10.044-4.301c-6.48-2.775-9.494-10.306-6.718-16.786 l36.946-86.264c2.017-4.71,6.632-7.753,11.756-7.753c1.733,0,3.425,0.348,5.029,1.035l10.044,4.301 c6.48,2.775,9.494,10.306,6.718,16.786l-36.946,86.264C141.966,238.966,137.351,242.009,132.227,242.009z M159.138,130.87 c-3.121,0-5.932,1.854-7.161,4.722l-36.946,86.264c-1.69,3.946,0.145,8.531,4.091,10.222l10.044,4.301 c0.979,0.419,2.008,0.631,3.061,0.631c3.121,0,5.932-1.854,7.161-4.722l36.946-86.264c1.69-3.946-0.145-8.531-4.091-10.222 l-10.044-4.301C161.22,131.082,160.19,130.87,159.138,130.87z" style="fill: rgb(219, 117, 146);"/></g><g id="__id274_szjpss7gdm"><path d="M118.96,206.332c-1.482,3.461-5.49,5.066-8.951,3.584l-6.659-2.852c-3.461-1.482-5.065-5.49-3.583-8.953 l24.492-57.186c1.482-3.461,5.49-5.064,8.951-3.582l6.659,2.852c3.461,1.482,5.065,5.49,3.583,8.951L118.96,206.332z" style="fill: rgb(255, 255, 255);"/></g><g id="__id275_szjpss7gdm"><path d="M112.689,212.968c-1.263,0-2.496-0.253-3.665-0.754l-6.659-2.852c-4.722-2.022-6.918-7.511-4.896-12.234 l24.493-57.187c1.47-3.433,4.833-5.65,8.567-5.65c1.264,0,2.497,0.254,3.666,0.755l6.659,2.852 c2.288,0.979,4.057,2.792,4.982,5.103s0.895,4.843-0.085,7.131l-24.492,57.186C119.788,210.75,116.424,212.968,112.689,212.968z M130.53,139.291c-1.731,0-3.29,1.028-3.972,2.619l-24.492,57.186c-0.937,2.189,0.081,4.733,2.269,5.671l6.659,2.852 c0.542,0.232,1.113,0.35,1.696,0.35c1.731,0,3.291-1.028,3.973-2.62l24.492-57.186c0.454-1.06,0.468-2.233,0.04-3.304 c-0.429-1.071-1.249-1.911-2.309-2.365l-6.659-2.852C131.684,139.409,131.113,139.291,130.53,139.291z" style="fill: rgb(219, 117, 146);"/></g><g><g id="__id276_szjpss7gdm"><path d="M246.572,278.193c-2.236,5.221,0.183,11.266,5.405,13.502l10.044,4.303 c5.221,2.236,11.266-0.184,13.502-5.404l36.946-86.266c2.236-5.221-0.184-11.266-5.405-13.502l-10.044-4.303 c-5.222-2.236-11.267,0.186-13.503,5.406L246.572,278.193z" style="fill: rgb(255, 255, 255);"/></g><g id="__id277_szjpss7gdm"><path d="M266.065,299.331C266.065,299.331,266.065,299.331,266.065,299.331c-1.733,0-3.425-0.348-5.029-1.035 l-10.044-4.303c-3.139-1.344-5.567-3.83-6.836-7.001c-1.269-3.17-1.227-6.645,0.118-9.783l36.946-86.264 c2.018-4.711,6.633-7.755,11.758-7.755c1.732,0,3.424,0.349,5.027,1.035l10.044,4.303c6.479,2.775,9.494,10.305,6.719,16.784 l-36.946,86.266C275.804,296.288,271.189,299.331,266.065,299.331z M292.978,188.19c-3.122,0-5.933,1.854-7.162,4.724 l-36.946,86.264c-0.818,1.911-0.844,4.026-0.071,5.957c0.772,1.93,2.251,3.443,4.163,4.263l10.044,4.303 c0.978,0.419,2.007,0.631,3.06,0.631c3.121,0,5.932-1.854,7.161-4.722l36.946-86.266c1.689-3.945-0.146-8.529-4.091-10.22 l-10.044-4.303C295.059,188.402,294.029,188.19,292.978,188.19z" style="fill: rgb(219, 117, 146);"/></g></g><g><g id="__id278_szjpss7gdm"><path d="M281.75,276.053c-1.482,3.463,0.121,7.471,3.583,8.953l6.658,2.852c3.462,1.482,7.469-0.123,8.952-3.584 l24.492-57.186c1.483-3.461-0.121-7.469-3.583-8.951l-6.659-2.852c-3.461-1.482-7.469,0.121-8.951,3.582L281.75,276.053z" style="fill: rgb(255, 255, 255);"/></g><g id="__id279_szjpss7gdm"><path d="M294.672,290.909C294.672,290.909,294.672,290.909,294.672,290.909c-1.264,0-2.497-0.253-3.665-0.754 l-6.659-2.852c-4.722-2.022-6.919-7.511-4.896-12.234l24.492-57.187c1.47-3.433,4.833-5.65,8.568-5.65 c1.264,0,2.497,0.254,3.666,0.755l6.659,2.852c2.288,0.979,4.057,2.792,4.982,5.103s0.895,4.844-0.086,7.131l-24.491,57.186 C301.771,288.691,298.407,290.909,294.672,290.909z M312.512,217.232c-1.731,0-3.291,1.028-3.972,2.619l-24.491,57.186 c-0.938,2.189,0.08,4.733,2.269,5.671l6.658,2.852c0.542,0.232,1.113,0.35,1.696,0.35c1.731,0.001,3.291-1.028,3.973-2.62 l24.491-57.186c0.455-1.061,0.469-2.233,0.04-3.305c-0.428-1.07-1.248-1.91-2.309-2.364l-6.659-2.852 C313.666,217.351,313.095,217.232,312.512,217.232z" style="fill: rgb(219, 117, 146);"/></g></g><g id="__id280_szjpss7gdm"><path d="M146.389 128.106H151.389V242.518H146.389z" transform="rotate(23.186 148.902 185.335)" style="fill: rgb(219, 117, 146);"/></g><g id="__id281_szjpss7gdm"><path d="M121.572 136.762H126.57300000000001V212.608H121.572z" transform="rotate(23.186 124.076 174.687)" style="fill: rgb(219, 117, 146);"/></g><g id="__id282_szjpss7gdm"><path d="M275.194 183.272H280.194V297.68399999999997H275.194z" transform="rotate(23.186 277.721 240.51)" style="fill: rgb(219, 117, 146);"/></g><g id="__id283_szjpss7gdm"><path d="M300.01 213.183H305.01099999999997V289.029H300.01z" transform="rotate(23.186 302.517 251.11)" style="fill: rgb(219, 117, 146);"/></g></svg>