<svg xmlns="http://www.w3.org/2000/svg" xmlns:xlink="http://www.w3.org/1999/xlink" preserveAspectRatio="xMidYMid meet" version="1.0" viewBox="-0.5 0.0 126.7 87.6" zoomAndPan="magnify" style="fill: rgb(219, 117, 146);" original_string_length="14238"><g id="__id255_szjpss7gdm"><path d="M19.408,44.24c0.158,0.092,0.331,0.135,0.501,0.135c0.345,0,0.68-0.178,0.866-0.498c0.277-0.478,0.115-1.09-0.362-1.367 c-9.926-5.767-14.63-13.888-14.38-24.827c0.013-0.552-0.424-1.01-0.977-1.022c-0.546-0.038-1.01,0.424-1.022,0.977 C3.769,29.209,8.942,38.159,19.408,44.24z" style="fill: inherit;"/><path d="M81.391,50.109c-2.048,0.922-4.047,0.781-6.11-0.427c-0.476-0.278-1.089-0.118-1.368,0.358 c-0.279,0.477-0.119,1.089,0.357,1.368c1.482,0.867,2.978,1.302,4.476,1.302c1.156,0,2.313-0.259,3.465-0.777 c0.504-0.227,0.729-0.818,0.502-1.322C82.486,50.106,81.894,49.884,81.391,50.109z" style="fill: inherit;"/><circle cx="86.563" cy="75.1" r="1.527" style="fill: inherit;"/><circle cx="80.11" cy="77.546" r="1.018" style="fill: inherit;"/><circle cx="73.197" cy="77.135" r="1.018" style="fill: inherit;"/><circle cx="79.755" cy="72.049" r="1.018" style="fill: inherit;"/><circle cx="90.059" cy="70.013" r="1.018" style="fill: inherit;"/><circle cx="91.077" cy="73.576" r="1.018" style="fill: inherit;"/><path d="M125.472,31.433c-2.917-1.579-4.949-1.092-6.239-0.241c-1.623-0.549-3.222-0.798-4.793-0.781 c2.034-2.479,2.538-5.983,2.538-10.715c0-1.722-1.712-3.071-3.899-3.071s-3.899,1.349-3.899,3.071c0,0.23,0.035,0.452,0.094,0.667 c0.001,0.005,0,0.01,0.001,0.015c0.758,2.692,0.846,5.228,0.272,7.871c-1.186-2.52-3.742-4.272-6.707-4.272 c-1.368,0-2.658,0.371-3.767,1.023c-1.16-2.021-3.313-3.318-5.713-3.318c-3.094,0-5.691,2.142-6.403,5.019 c-0.735-0.314-1.487-0.491-2.253-0.491c-2.292,0-4.296,1.234-5.398,3.069c-0.847-0.41-1.771-0.634-2.733-0.634 c-0.152,0-0.301,0.012-0.45,0.023c3.745-7.975,2.524-15.316-3.645-21.851c-0.213-1.494-1.488-2.649-3.04-2.649 c-1.569,0-2.853,1.182-3.044,2.699c-1.824,2.34-2.91,5.346-4.049,8.53c-0.999,2.788-2.03,5.671-3.605,8.074 c-1.141,1.741-2.081,2.874-2.912,3.756c-0.363-2.447-1.258-4.507-2.075-6.37c-0.732-1.67-1.424-3.248-1.656-4.902 c-0.278-1.987-0.237-4.063-0.202-5.896c0.063-3.215,0.096-6.005-1.55-7.469C50.108,1.124,48.844,0,47.314,0 c-1.529,0-2.791,1.121-3.032,2.583c-5.774,4.832-8.491,11.563-8.104,20.04c-0.487-0.599-0.926-1.21-1.275-1.839 c-0.683-1.229-1.33-2.679-2.016-4.213c-1.842-4.123-3.926-8.768-7.634-11.214c-0.273-1.423-1.523-2.503-3.025-2.503 c-1.7,0-3.083,1.383-3.083,3.083c0,0.143,0.023,0.28,0.042,0.418c-2.987,3.726-4.17,8.009-3.538,12.79 c-2.348-3.339-4.976-6.237-8.066-7.53c-0.322-1.358-1.538-2.374-2.993-2.374c-1.7,0-3.083,1.383-3.083,3.083 c0,0.288,0.052,0.562,0.127,0.826c-1.883,3.139-2.162,8.247-0.717,14.188c1.77,7.275,6.768,17.254,15.104,22.242 c-5.541,7.105-2.406,19.772,1.942,27.049c4.371,7.313,11.619,10.924,15.99,10.924c0.756,0,1.426-0.108,1.979-0.323 c0.766-0.298,1.463-0.708,2.071-1.221c0,0,0,0,0-0.001c1.048-0.884,2.511-1.048,3.728-0.412c0.705,0.366,1.474,0.614,2.287,0.737 c3.513,0.526,10.214-3.595,13.895-11.074c3.569,6.833,10.755,11.293,18.571,11.293c9.625,0,17.733-6.536,20.172-15.398 c0.457,0.083,0.92,0.137,1.391,0.137c3.383,0,6.335-2.208,7.344-5.363c0.174,0.012,0.344,0.044,0.521,0.044 c4.255,0,7.717-3.462,7.717-7.717c0-0.487-0.06-0.96-0.147-1.426c3.253-0.933,5.594-3.941,5.594-7.412 c0-3.028-1.757-5.646-4.302-6.909c0.451-0.995,0.691-2.077,0.691-3.185c0-2.777-1.48-5.209-3.687-6.568 c1.638-0.435,3.311-0.476,5.042-0.136c-0.549,0.687-0.894,1.582-0.894,2.573c0,2.14,1.559,3.881,3.475,3.881 c1.916,0,3.474-1.741,3.474-3.881c0-1.098-0.414-2.085-1.072-2.792c0.679-0.018,1.567,0.168,2.718,0.791 c0.487,0.265,1.092,0.083,1.355-0.403C126.138,32.303,125.958,31.696,125.472,31.433z M110.919,30.775 c0.917-2.791,1.191-5.477,0.833-8.198c0.414,0.115,0.856,0.189,1.327,0.189c0.669,0,1.283-0.138,1.827-0.362 C114.67,26.496,113.728,29.116,110.919,30.775z M113.079,18.625c1.087,0,1.899,0.565,1.899,1.071s-0.812,1.071-1.899,1.071 s-1.899-0.565-1.899-1.071S111.992,18.625,113.079,18.625z M108.256,31.392c0,0.081-0.021,0.159-0.024,0.24 c-0.161-0.01-0.32-0.025-0.484-0.025c-0.42,0-0.835,0.046-1.246,0.112c-1.384-2.078-3.747-3.451-6.425-3.451 c-0.62,0-1.22,0.081-1.798,0.22c0.29-0.457,0.637-0.871,1.045-1.219c0.011-0.009,0.02-0.019,0.03-0.029 c0.947-0.794,2.167-1.265,3.486-1.265C105.827,25.976,108.256,28.406,108.256,31.392z M109.413,47.322 c0,3.152-2.564,5.717-5.716,5.717c-3.152,0-5.717-2.564-5.717-5.717c0-1.358,0.494-2.63,1.358-3.658 c0.244,0.023,0.49,0.037,0.739,0.037c1.93,0,3.693-0.717,5.047-1.893C107.63,42.453,109.413,44.69,109.413,47.322z M97.431,59.213 c-0.356,0-0.708-0.045-1.055-0.11c-0.607-1.85-1.454-3.593-2.524-5.177c1.466-0.14,2.85-0.677,4.033-1.544 c1.261,1.446,3.045,2.423,5.059,2.619C102.277,57.432,100.033,59.213,97.431,59.213z M69.665,45.802 c-0.457-0.696-0.712-1.507-0.712-2.351c0-2.371,1.929-4.3,4.3-4.3c0.745,0,1.456,0.186,2.091,0.541 c-0.206,0.624-0.322,1.288-0.322,1.981c0,1.071,0.278,2.104,0.78,3.02C73.677,44.761,71.613,45.137,69.665,45.802z M55.448,45.479 c0.809-0.939,1.992-1.504,3.254-1.504c0.553,0,1.089,0.115,1.593,0.317c-0.393,0.821-0.62,1.737-0.62,2.707 c0,1.576,0.584,3.054,1.616,4.2c-0.49,0.519-0.954,1.067-1.394,1.64C59.038,49.922,57.594,47.35,55.448,45.479z M54.697,39.076 c0.14,0,0.278,0.02,0.416,0.033c-0.067,0.369-0.108,0.747-0.108,1.135c0,0.898,0.2,1.768,0.561,2.572 c-0.659,0.378-1.242,0.88-1.731,1.475c-0.089-0.054-0.164-0.122-0.255-0.174c-1.093-0.626-2.125-1.055-3.106-1.334 C50.838,40.709,52.619,39.076,54.697,39.076z M70.888,37.616c-1.508,0.614-2.725,1.795-3.387,3.278 c-0.496-0.124-1.006-0.194-1.527-0.194c-0.037,0-0.073,0.005-0.11,0.006c-0.549-0.738-0.863-1.623-0.863-2.554 c0-2.371,1.929-4.3,4.3-4.3c0.361,0,0.711,0.056,1.053,0.142c-0.047,0.311-0.08,0.626-0.08,0.95 C70.274,35.886,70.497,36.786,70.888,37.616z M63.765,41.108c-0.877,0.33-1.662,0.847-2.304,1.507 c-0.855-0.418-1.794-0.639-2.759-0.639c-0.431,0-0.852,0.058-1.266,0.143c-0.282-0.581-0.431-1.218-0.431-1.875 c0-2.371,1.929-4.3,4.3-4.3c0.687,0,1.347,0.161,1.946,0.467c-0.16,0.554-0.25,1.137-0.25,1.741 C63.002,39.198,63.281,40.203,63.765,41.108z M62.737,49.808c-0.675-0.775-1.062-1.757-1.062-2.809c0-2.371,1.929-4.299,4.3-4.299 c0.346,0,0.681,0.051,1.01,0.13c-0.02,0.204-0.031,0.411-0.031,0.621c0,1.1,0.299,2.161,0.833,3.101 C65.959,47.384,64.259,48.477,62.737,49.808z M78.366,44.767c-0.846-0.81-1.343-1.915-1.343-3.093c0-2.188,1.63-3.98,3.762-4.247 c0.747,0.597,1.631,1.027,2.602,1.234c0.025,0.344,0.065,0.686,0.136,1.021c-1.958,1.052-3.233,3.086-3.311,5.341 C79.604,44.914,78.99,44.823,78.366,44.767z M91.075,32.392c0.688,0,1.363,0.133,2,0.371c-0.454,0.982-0.714,2.071-0.714,3.222 c0,0.573,0.068,1.13,0.187,1.668c-2.601,0.165-4.877,1.542-6.255,3.582c-0.605-0.92-0.935-1.993-0.935-3.127 C85.358,34.957,87.922,32.392,91.075,32.392z M100.077,30.269c3.152,0,5.717,2.564,5.717,5.716c0,3.152-2.564,5.717-5.717,5.717 c-3.152,0-5.716-2.564-5.716-5.717C94.361,32.833,96.925,30.269,100.077,30.269z M82.218,45.49 c-0.005-0.084-0.024-0.167-0.024-0.251c0-1.495,0.786-2.855,2.015-3.633c0.298,0.586,0.666,1.135,1.106,1.63 c-0.267,0.806-0.417,1.665-0.417,2.56c0,0.224,0.011,0.447,0.029,0.669C84.054,46.078,83.149,45.755,82.218,45.49z M87.203,47.657 c-0.191-0.601-0.305-1.223-0.305-1.861c0-3.401,2.767-6.169,6.168-6.169c0.073,0,0.144,0.009,0.216,0.011 c0.854,1.582,2.246,2.83,3.928,3.506c-0.799,1.235-1.231,2.674-1.231,4.179c0,1.219,0.292,2.368,0.797,3.395 c-1.065,0.805-2.356,1.247-3.711,1.247c-0.271,0-0.535-0.036-0.799-0.07C90.817,50.227,89.108,48.798,87.203,47.657z M93.361,23.681c1.776,0,3.362,1.016,4.126,2.577c-0.896,0.934-1.55,2.108-1.86,3.435c-0.545,0.386-1.04,0.838-1.467,1.349 c-0.969-0.422-2.018-0.649-3.085-0.649c-0.581,0-1.146,0.07-1.691,0.193c-0.406-0.697-0.626-1.479-0.626-2.302 C88.758,25.745,90.823,23.681,93.361,23.681z M84.705,28.208c0.702,0,1.407,0.228,2.101,0.653c0.074,0.852,0.297,1.668,0.683,2.42 c-2.033,1.072-3.531,3.023-3.985,5.346c-1.794-0.524-3.098-2.178-3.098-4.12C80.406,30.137,82.335,28.208,84.705,28.208z M78.562,31.13c-0.1,0.444-0.156,0.904-0.156,1.377c0,1.166,0.326,2.26,0.884,3.202c-1.227,0.415-2.275,1.197-3.027,2.213 c-0.919-0.499-1.955-0.771-3.009-0.771c-0.117,0-0.231,0.011-0.346,0.018c-0.409-0.67-0.633-1.426-0.633-2.226 c0-2.371,1.929-4.3,4.3-4.3C77.277,30.644,77.953,30.811,78.562,31.13z M69.44,6.167c0.598,0,1.083,0.486,1.083,1.083 c0,0.598-0.486,1.083-1.083,1.083c-0.597,0-1.083-0.486-1.083-1.083C68.357,6.652,68.842,6.167,69.44,6.167z M60.414,24.565 c1.705-2.602,2.777-5.598,3.815-8.496c0.889-2.483,1.745-4.849,2.92-6.776c0.565,0.633,1.378,1.039,2.29,1.039 c0.994,0,1.87-0.481,2.434-1.213c5.264,6.139,5.78,12.813,1.597,20.347c-1.069,0.608-1.941,1.519-2.503,2.616 c-0.54-0.148-1.096-0.232-1.667-0.232c-0.257,0-0.508,0.02-0.757,0.05c3.67-6.379,4.516-12.174,2.846-18.899 c-0.134-0.536-0.677-0.862-1.212-0.729c-0.536,0.133-0.862,0.676-0.729,1.212c1.757,7.071,0.566,12.809-4.103,19.77 c-0.477,0.387-0.898,0.84-1.246,1.348c-0.863-0.429-1.81-0.66-2.794-0.66c-2.362,0-4.422,1.309-5.5,3.237 c-0.364-0.065-0.734-0.105-1.108-0.105c-0.615,0-1.212,0.099-1.778,0.278c-0.317-0.867-0.609-2.425,0.376-4.178 c0.771-1.373,1.511-2.134,2.411-3.007c0.001-0.001,0.001-0.001,0.002-0.002c0.075-0.072,0.148-0.144,0.225-0.218 C57.087,28.835,58.524,27.45,60.414,24.565z M47.314,2c0.598,0,1.083,0.486,1.083,1.083c0,0.597-0.486,1.083-1.083,1.083 c-0.597,0-1.083-0.486-1.083-1.083C46.231,2.486,46.716,2,47.314,2z M44.76,4.808c0.555,0.819,1.492,1.358,2.554,1.358 c0.917,0,1.733-0.411,2.299-1.049c0.349,1.166,0.323,2.933,0.285,4.9c-0.037,1.907-0.08,4.068,0.221,6.212 c0.27,1.927,1.015,3.627,1.805,5.428c0.977,2.228,1.975,4.536,2.062,7.4c-0.831,0.823-1.632,1.713-2.432,3.138 c-1.438,2.559-0.917,4.846-0.425,6.064c-1.342,0.972-2.315,2.46-2.622,4.157c-0.333-0.03-0.659-0.043-0.981-0.041 c0.045-1.788-0.087-5.344-1.509-8.739c-2.365-9.737-2.316-17.895,0.147-24.248c0.2-0.515-0.056-1.094-0.571-1.293 c-0.513-0.201-1.094,0.055-1.293,0.571c-2.241,5.778-2.633,12.623-1.195,20.81c-0.917-0.967-1.925-1.9-2.923-2.816 c-0.608-0.558-1.22-1.123-1.813-1.695C37.376,16.28,39.466,9.664,44.76,4.808z M22.228,4.855c0.598,0,1.083,0.486,1.083,1.083 c0,0.598-0.486,1.083-1.083,1.083c-0.597,0-1.083-0.486-1.083-1.083C21.145,5.341,21.631,4.855,22.228,4.855z M20.234,8.27 c0.539,0.462,1.23,0.751,1.994,0.751c1.113,0,2.081-0.598,2.624-1.485c2.813,2.265,4.608,6.268,6.209,9.851 c0.704,1.575,1.369,3.063,2.093,4.368c0.892,1.606,2.187,3.048,3.588,4.418c0.005,0.004,0.008,0.009,0.013,0.013 c0.678,0.662,1.378,1.309,2.074,1.947c2.255,2.07,4.386,4.024,5.31,6.191c1.375,3.222,1.43,6.738,1.377,8.25 c-0.479,0.093-0.946,0.214-1.402,0.355c-0.809-1.325-2.76-4.031-5.993-5.648c-1.858-0.929-3.552-1.036-5.19-1.139 c-2.234-0.141-4.345-0.274-7.169-2.386c-1.931-1.444-3.982-4.828-6.155-8.411c-0.073-0.121-0.148-0.244-0.222-0.365 C16.57,18.422,16.846,12.942,20.234,8.27z M4.591,11.242c0.597,0,1.083,0.486,1.083,1.083c0,0.598-0.486,1.083-1.083,1.083 c-0.598,0-1.083-0.486-1.083-1.083C3.508,11.728,3.994,11.242,4.591,11.242z M2.861,26.866c-1.187-4.879-1.142-9.21,0.077-11.948 c0.479,0.306,1.044,0.49,1.653,0.49c1.205,0,2.24-0.702,2.747-1.712c4.101,2.049,7.517,7.674,10.556,12.687 c2.276,3.754,4.426,7.3,6.668,8.976c3.301,2.469,5.925,2.634,8.241,2.78c1.571,0.099,2.927,0.184,4.422,0.932 c2.528,1.264,4.177,3.366,4.97,4.576c-0.677,0.292-1.333,0.607-1.973,0.916c-1.636,0.79-3.182,1.536-4.741,1.708 c-0.079,0.009-0.162,0.001-0.241,0.007c-0.345-1.772-0.266-3.427,0.237-4.988c0.169-0.526-0.12-1.089-0.646-1.258 c-0.527-0.169-1.089,0.121-1.258,0.646c-0.565,1.755-0.682,3.587-0.373,5.513c-0.878-0.126-1.783-0.331-2.718-0.548 c-3.871-0.9-8.256-1.917-13.065,2.438C9.39,43.496,4.564,33.868,2.861,26.866z M44.317,84.355c-0.595-0.09-1.155-0.27-1.663-0.533 c-1.937-1.01-4.269-0.751-5.94,0.658c-0.439,0.37-0.945,0.668-1.506,0.886c-2.706,1.049-10.851-1.936-15.528-9.762 c-4.313-7.219-7.468-20.056-0.979-25.993c2.314-2.117,4.456-2.76,6.563-2.76c1.588,0,3.157,0.365,4.763,0.739 c1.201,0.279,2.428,0.561,3.66,0.671c0.323,1.045,0.766,2.119,1.33,3.226c-0.65-0.009-1.344-0.074-2.088-0.201 c-0.546-0.091-1.061,0.272-1.154,0.816c-0.093,0.545,0.273,1.062,0.817,1.154c0.894,0.153,1.742,0.229,2.542,0.229 c2.497,0,4.532-0.743,6.07-2.221c0.398-0.382,0.411-1.016,0.028-1.413c-0.383-0.4-1.017-0.412-1.414-0.028 c-0.731,0.702-1.616,1.171-2.657,1.429c-0.572-1.04-1.027-2.042-1.366-3.01c1.863-0.228,3.608-1.067,5.296-1.881 c3.457-1.669,6.722-3.244,11.494-0.511c3.294,1.886,5.111,5.422,5.909,9.47c0.008,0.069,0.021,0.133,0.043,0.198 c0.994,5.29,0.265,11.422-1.21,15.907c-0.097,0.294-0.211,0.572-0.317,0.857c-0.049,0.086-0.079,0.175-0.101,0.271 C53.826,80.49,47.051,84.768,44.317,84.355z M76.484,84.553c-7.649,0-14.634-4.719-17.525-11.773 c0.089-0.243,0.187-0.478,0.269-0.727c1.531-4.654,2.256-10.97,1.265-16.582c2.223-3.501,5.434-6.101,9.159-7.533 c0.01-0.004,0.02-0.007,0.03-0.011c2.132-0.815,4.427-1.255,6.802-1.255c10.444,0,18.94,8.497,18.94,18.94 S86.928,84.553,76.484,84.553z M98.046,69.292c-0.322,0-0.64-0.03-0.954-0.083c0.204-1.171,0.332-2.368,0.332-3.597 c0-1.522-0.173-3.002-0.482-4.433c0.163,0.01,0.325,0.033,0.489,0.033c0.451,0,0.892-0.045,1.323-0.121 c0.837,2.118,2.542,3.739,4.651,4.462C102.59,67.764,100.469,69.292,98.046,69.292z M105.911,63.973 c-2.323,0-4.373-1.398-5.256-3.482c2.22-1.033,3.89-3.088,4.357-5.572c1.362-0.235,2.605-0.823,3.624-1.674 c1.831,0.994,2.992,2.894,2.992,5.012C111.628,61.408,109.064,63.973,105.911,63.973z M117.075,49.418 c0,2.592-1.766,4.823-4.206,5.495c-0.622-1.297-1.606-2.399-2.85-3.18c0.876-1.251,1.394-2.771,1.394-4.41 c0-1.274-0.314-2.48-0.865-3.547c0.268-0.038,0.536-0.073,0.811-0.073C114.51,43.702,117.075,46.266,117.075,49.418z M113.464,39.324c0,0.886-0.21,1.745-0.597,2.528c-0.488-0.097-0.992-0.15-1.509-0.15c-0.711,0-1.41,0.096-2.085,0.285 c-0.753-0.787-1.674-1.415-2.715-1.829c0.779-1.205,1.236-2.635,1.236-4.173c0-0.822-0.132-1.613-0.371-2.356 c0.109-0.006,0.216-0.021,0.325-0.021C110.9,33.607,113.464,36.172,113.464,39.324z M119.4,37.074 c-0.813,0-1.475-0.844-1.475-1.881c0-1.037,0.662-1.88,1.475-1.88s1.474,0.844,1.474,1.88 C120.874,36.23,120.213,37.074,119.4,37.074z" style="fill: inherit;"/><path d="M33.954,34.753c0.174,0.121,0.373,0.179,0.57,0.179c0.316,0,0.627-0.149,0.822-0.429c0.315-0.453,0.204-1.077-0.25-1.392 C27.222,27.63,23.021,20.52,22.608,11.978c-0.027-0.552-0.508-0.979-1.047-0.951c-0.552,0.027-0.977,0.496-0.951,1.047 C21.055,21.269,25.544,28.899,33.954,34.753z" style="fill: inherit;"/></g></svg>