<svg xmlns="http://www.w3.org/2000/svg" xmlns:xlink="http://www.w3.org/1999/xlink" preserveAspectRatio="xMidYMid meet" version="1.0" viewBox="-0.0 -2.9 126.3 100.1" zoomAndPan="magnify" style="fill: rgb(219, 117, 146);" original_string_length="5630"><g id="__id249_smbf61jual"><path d="M125.983,34.941c-0.536-17.295-7.694-25.801-13.604-29.892c-11.433-7.914-24.898-4.36-27.48-3.568 C73.78,4.888,67.75,14.019,65.646,17.846c-2.327-3.788-8.932-12.952-20.067-16.365c-2.583-0.793-16.05-4.345-27.48,3.568 C12.188,9.14,5.03,17.646,4.493,34.944l-0.004,0.154C1.651,37.025-0.022,40.902,0,43.757c0.051,6.392,4.545,11.398,4.7,11.566 c0.233,0.286,2.929,3.485,8.803,6.541c5.8,8.335,14.412,16.47,24.967,23.598c-0.292,0.535-0.38,1.055-0.38,1.482 c0,0.973,0.38,1.839,1.13,2.573c0.602,0.589,1.458,1.089,2.553,1.504c-0.021,0.147-0.059,0.29-0.059,0.443 c0,1.02,0.416,1.919,1.236,2.675c2.588,2.381,9.149,2.882,14.204,2.882c3.061,0,5.569-0.184,6.309-0.244 c0.94,0.046,9.595,0.414,13.893-1.679c0.286,0.006,0.572,0.011,0.857,0.011c10.273,0,19.347-3.725,26.295-10.81 c6.9-7.035,9.645-17.118,10.054-18.748C122.342,55.58,126.293,45.003,125.983,34.941z M6.216,54.019 C6.174,53.973,2.044,49.354,2,43.742c-0.018-2.226,1.292-5.371,3.469-6.925c2.763,1.653,15.357,7.943,43.037,4.934 c-0.585,3.873-2.03,15.326-0.073,23.342C18.288,68.249,6.367,54.202,6.216,54.019z M17.256,63.589 c5.431,2.2,12.784,3.978,22.401,3.978c3.1,0,6.441-0.187,10.02-0.601l1.816,0.282c1.438,1.048,3.53,1.802,5.592,2.533 c0.304,0.107,0.613,0.218,0.922,0.329c-6.406-0.397-17.167-0.555-20.539,2.477c-0.778,0.699-1.189,1.572-1.189,2.523 c0,1.055,0.431,1.986,1.28,2.769c0.42,0.386,0.949,0.72,1.547,1.016c-1.53,0.948-1.921,2.094-1.921,3.008 c0,0.088,0.021,0.169,0.027,0.255C29.127,76.417,22.324,70.091,17.256,63.589z M63.904,43.004c0.201,0.333,0.57,0.522,0.962,0.477 c5.678-0.607,21.178-1.492,24.682,1.656c0.502,0.451,0.56,0.847,0.56,1.105c0,0.516-0.214,0.953-0.672,1.375 c-3.312,3.048-16.158,2.711-20.829,2.324c-0.568-0.06-1.034,0.363-1.079,0.913c-0.046,0.551,0.363,1.034,0.913,1.079 c0.697,0.059,3.506,0.272,6.953,0.272c3.51,0,7.679-0.225,10.964-1.058c1.147,0.346,2.809,1.035,2.809,2.15 c0,0.479-0.198,0.884-0.625,1.276c-3.146,2.897-15.378,2.57-19.826,2.203c-0.562-0.063-1.033,0.363-1.079,0.913 c-0.046,0.551,0.363,1.034,0.913,1.079c0.665,0.056,3.341,0.26,6.627,0.26c4.086,0,9.107-0.32,12.396-1.625 c0.571,0.45,0.653,0.851,0.653,1.129c0,0.454-0.179,0.841-0.562,1.217c-1.782,1.742-7.389,2.646-15.354,2.476 c-0.008,0-0.015,0-0.021,0c-0.543,0-0.988,0.434-1,0.979c-0.012,0.553,0.427,1.01,0.979,1.021c0.619,0.013,1.255,0.021,1.902,0.021 c3.478,0,7.268-0.22,10.284-0.939c-0.097,1.803-3.466,3.062-9.296,3.477c-2.497-1.937-6.52-4.426-10.695-4.426 c-2.263,0-4.507-0.47-6.486-0.885c-3.46-0.723-6.73-1.401-7.963,1.368c-1.429-8.353,0.294-19.723,0.622-21.737 c1.146-1.074,6.767-6.066,12.243-6.066c2.562,0,5.001-0.511,7.153-0.962c3.786-0.793,5.498-0.999,6.034,0.334 c0.206,0.514,0.111,0.835,0.022,1.032c-0.613,1.355-3.728,2.459-6.23,3.346c-2.691,0.953-5.015,1.776-5.929,3.145 C63.712,42.253,63.702,42.672,63.904,43.004z M63.504,94.775c-0.044-0.003-0.092-0.003-0.138,0.002 c-4.279,0.355-16.043,0.668-19.061-2.112c-0.359-0.329-0.538-0.672-0.575-1.059c2.456,0.581,5.705,0.876,9.742,0.876 c0.614,0,1.247-0.007,1.896-0.021c0.553-0.012,0.991-0.469,0.979-1.021s-0.447-0.958-1.021-0.979 c-7.651,0.161-13.004-0.706-14.708-2.374c-0.361-0.354-0.529-0.718-0.529-1.145c0-0.257,0.077-0.626,0.599-1.045 c3.176,1.253,8.006,1.559,11.935,1.559c3.163,0,5.737-0.196,6.378-0.25c0.55-0.045,0.959-0.528,0.913-1.079 c-0.045-0.55-0.512-0.971-1.079-0.913c-4.277,0.354-16.04,0.668-19.061-2.111c-0.403-0.371-0.591-0.753-0.591-1.202 c0-1.048,1.576-1.702,2.669-2.032c3.166,0.801,7.179,1.018,10.558,1.018c3.32,0,6.024-0.206,6.696-0.263 c0.55-0.045,0.959-0.528,0.913-1.079c-0.046-0.55-0.521-0.969-1.079-0.913c-4.493,0.372-16.847,0.701-20.028-2.227 c-0.433-0.398-0.635-0.811-0.635-1.297c0-0.241,0.055-0.612,0.526-1.036c3.362-3.022,18.276-2.168,23.737-1.586 c0.395,0.041,0.761-0.145,0.962-0.477s0.191-0.75-0.023-1.073c-0.888-1.327-3.13-2.122-5.728-3.042 c-2.403-0.852-5.394-1.911-5.978-3.202c-0.09-0.199-0.168-0.488,0.023-0.965c0.504-1.258,2.145-1.057,5.766-0.299 c2.075,0.435,4.427,0.927,6.896,0.927c5.236,0,10.521,4.808,11.602,5.847c0.368,2.125,2.461,15.109,0.243,23.176 C72.27,95.225,63.596,94.779,63.504,94.775z M103.081,82.897c-8.084,8.242-17.637,10.163-24.637,10.209 c1.809-7.68,0.358-18.498-0.243-22.253c17.99,1.893,27.849-1.621,33.92-4.053C111.045,70.24,108.285,77.591,103.081,82.897z M77.444,68.753c-0.05-0.049-0.1-0.096-0.164-0.157c6.166-0.7,9.182-2.463,9.182-5.37c0-0.172-0.017-0.339-0.043-0.505 c1.091-0.407,2.001-0.914,2.644-1.544c0.771-0.755,1.163-1.646,1.163-2.646c0-0.594-0.174-1.362-0.805-2.107 c0.168-0.122,0.33-0.247,0.475-0.381c0.844-0.776,1.271-1.7,1.271-2.748c0-0.95-0.413-2.144-2.038-3.127 c0.645-0.314,1.213-0.669,1.661-1.081c0.874-0.805,1.317-1.763,1.317-2.847c0-0.977-0.423-1.874-1.223-2.592 c-3.538-3.181-14.953-2.97-21.568-2.545c0.403-0.147,0.811-0.292,1.209-0.433c3.156-1.119,6.421-2.275,7.385-4.407 c0.37-0.819,0.374-1.694,0.011-2.6c-1.215-3.033-4.658-2.311-8.3-1.547c-2.057,0.431-4.39,0.919-6.743,0.919 c-6.271,0-12.327,5.391-13.62,6.615C21.571,42.836,8.899,36.494,6.49,35.087l0.002-0.084c0.511-16.461,7.212-24.481,12.744-28.31 c10.67-7.388,23.325-4.046,25.756-3.301c13.06,4.003,19.751,16.885,19.816,17.015c0.176,0.345,0.54,0.55,0.921,0.546 c0.386-0.011,0.731-0.244,0.887-0.598c0.057-0.129,5.813-12.961,18.867-16.962c2.43-0.745,15.086-4.086,25.756,3.301 c5.532,3.829,12.233,11.848,12.744,28.313c0.296,9.574-3.501,19.693-10.972,29.279l-0.685,0.276 C106.419,66.952,96.549,70.938,77.444,68.753z" style="fill: inherit;"/></g></svg>