<svg xmlns="http://www.w3.org/2000/svg" xmlns:xlink="http://www.w3.org/1999/xlink" fill="none" preserveAspectRatio="xMidYMid meet" style="fill: none;" version="1.0" viewBox="267.7 203.9 2518.7 2455.9" zoomAndPan="magnify" original_string_length="1785"><g id="__id252_szjpss7gdm"><path clip-rule="evenodd" d="M970.5 1023.15C979.147 1020.49 988.512 1021.57 996.325 1026.13L1495.73 1317.54L2409.05 1119.55C2417.48 1117.72 2426.29 1119.33 2433.53 1124.03C2440.77 1128.73 2445.83 1136.12 2447.59 1144.56L2700.03 2353.91C2701.82 2362.46 2700.07 2371.36 2695.19 2378.6C2690.31 2385.85 2682.71 2390.81 2674.12 2392.37L1709.67 2567.13C1703.43 2568.26 1697 2567.54 1691.17 2565.04L982.334 2261.86L316.787 2653.8C306.644 2659.77 294.057 2659.76 283.919 2653.78C273.78 2647.8 267.689 2636.79 268.012 2625.02L305.771 1250.62C306.152 1236.74 315.34 1224.65 328.608 1220.57L970.5 1023.15ZM369.837 1275.61L334.322 2568.35L946.571 2207.8V1098.23L369.837 1275.61ZM1667.68 2484.6L1011.3 2203.85V1109.81L1466.38 1375.35L1667.68 2484.6ZM1735.66 2496.64L2629.88 2334.6L2390.89 1189.71L1532.25 1375.85L1735.66 2496.64Z" fill-rule="evenodd" style="fill: rgb(219, 117, 146);"/></g><g id="__id253_szjpss7gdm"><path d="M1790.04 445.509C1998.67 236.83 2336.9 236.83 2545.52 445.509C2725.61 625.647 2753.53 907.904 2612.22 1119.85L2167.78 1786.45L1723.35 1119.85C1582.04 907.904 1609.96 625.647 1790.04 445.509ZM2167.78 1136.09C2345.41 1136.09 2489.38 992.06 2489.38 814.409C2489.38 636.757 2345.41 492.728 2167.78 492.728C1990.16 492.728 1846.18 636.757 1846.18 814.409C1846.18 992.06 1990.16 1136.09 2167.78 1136.09Z" stroke="#000" stroke-width="60" style="fill: rgb(255, 255, 255);"/></g></svg>