<svg xmlns="http://www.w3.org/2000/svg" xmlns:xlink="http://www.w3.org/1999/xlink" preserveAspectRatio="xMidYMid meet" version="1.0" viewBox="0.0 0.0 1665.7 1320.0" zoomAndPan="magnify" style="fill: rgb(253, 209, 163);" original_string_length="12724"><g><g id="__id314_szjpss7gdm"><path d="M340.8,312.2c18,0,34.6-6.3,47.4-16.7c0,0,0,0,0,0c0.9-0.7,1.8-1.5,2.6-2.2c0,0,0.1-0.1,0.1-0.1c0.8-0.7,1.6-1.5,2.4-2.3 c0.1-0.1,0.1-0.1,0.2-0.2c0.8-0.8,1.5-1.5,2.3-2.3c0.1-0.1,0.2-0.2,0.2-0.3c0.7-0.8,1.4-1.5,2.1-2.3c0.1-0.1,0.2-0.2,0.3-0.4 c0.6-0.8,1.3-1.5,1.9-2.3c0.1-0.2,0.2-0.3,0.4-0.5c0.6-0.8,1.1-1.5,1.7-2.3c0.1-0.2,0.3-0.4,0.4-0.6c0.5-0.8,1-1.5,1.5-2.3 c0.2-0.2,0.3-0.5,0.4-0.7c0.5-0.7,0.9-1.5,1.3-2.3c0.2-0.3,0.3-0.6,0.5-0.9c0.4-0.7,0.8-1.5,1.1-2.2c0.2-0.3,0.3-0.7,0.5-1 c0.3-0.7,0.7-1.4,1-2.1c0.2-0.4,0.3-0.8,0.5-1.2c0.3-0.7,0.6-1.4,0.8-2.1c0.2-0.4,0.3-0.9,0.5-1.3c0.2-0.7,0.5-1.3,0.7-2 c0.2-0.5,0.3-1,0.4-1.5c0.2-0.6,0.4-1.3,0.6-1.9c0.1-0.5,0.3-1.1,0.4-1.7c0.1-0.6,0.3-1.2,0.4-1.8c0.1-0.6,0.2-1.2,0.3-1.8 c0.1-0.6,0.2-1.1,0.3-1.7c0.1-0.7,0.2-1.4,0.3-2c0.1-0.5,0.1-1,0.2-1.6c0.1-0.8,0.1-1.6,0.2-2.4c0-0.4,0.1-0.8,0.1-1.3 c0.1-1.2,0.1-2.5,0.1-3.7s0-2.5-0.1-3.7c0-0.4-0.1-0.8-0.1-1.3c-0.1-0.8-0.1-1.6-0.2-2.4c-0.1-0.5-0.1-1-0.2-1.6 c-0.1-0.7-0.2-1.4-0.3-2c-0.1-0.6-0.2-1.1-0.3-1.7c-0.1-0.6-0.2-1.2-0.3-1.8c-0.1-0.6-0.3-1.2-0.4-1.8c-0.1-0.5-0.2-1.1-0.4-1.7 c-0.2-0.6-0.4-1.3-0.6-1.9c-0.1-0.5-0.3-1-0.4-1.5c-0.2-0.7-0.5-1.3-0.7-2c-0.2-0.4-0.3-0.9-0.5-1.3c-0.3-0.7-0.6-1.4-0.8-2.1 c-0.2-0.4-0.3-0.8-0.5-1.2c-0.3-0.7-0.7-1.4-1-2.1c-0.2-0.3-0.3-0.7-0.5-1c-0.4-0.7-0.8-1.5-1.1-2.2c-0.2-0.3-0.3-0.6-0.5-0.9 c-0.4-0.8-0.9-1.5-1.3-2.3c-0.1-0.2-0.3-0.5-0.4-0.7c-0.5-0.8-1-1.5-1.5-2.3c-0.1-0.2-0.3-0.4-0.4-0.6c-0.5-0.8-1.1-1.6-1.7-2.3 c-0.1-0.2-0.2-0.3-0.4-0.5c-0.6-0.8-1.2-1.6-1.9-2.3c-0.1-0.1-0.2-0.2-0.3-0.4c-0.7-0.8-1.4-1.6-2.1-2.3c-0.1-0.1-0.2-0.2-0.2-0.3 c-0.7-0.8-1.5-1.6-2.3-2.3c-0.1-0.1-0.1-0.1-0.2-0.2c-0.8-0.8-1.6-1.5-2.4-2.3c0,0-0.1-0.1-0.1-0.1c-0.9-0.8-1.7-1.5-2.6-2.2 c0,0,0,0,0,0c-12.8-10.4-29.4-16.7-47.4-16.7c-40.9,0-74.1,32.3-74.1,72.1S299.9,312.2,340.8,312.2z" style="fill: inherit;"/><path d="M1327.4,736.8c0.3,0,0.5,0,0.8,0l0,0c0,0,0,0,0,0c17.7-0.2,34-6.4,46.6-16.7c0,0,0,0,0,0c0.9-0.7,1.8-1.5,2.6-2.2 c0,0,0.1-0.1,0.1-0.1c0.8-0.7,1.7-1.5,2.4-2.3c0.1-0.1,0.1-0.1,0.2-0.2c0.8-0.8,1.5-1.5,2.3-2.3c0.1-0.1,0.1-0.2,0.2-0.3 c0.7-0.8,1.4-1.5,2.1-2.3c0.1-0.1,0.2-0.3,0.3-0.4c0.6-0.8,1.3-1.5,1.9-2.3c0.1-0.2,0.2-0.3,0.4-0.5c0.6-0.8,1.1-1.5,1.7-2.3 c0.1-0.2,0.3-0.4,0.4-0.6c0.5-0.8,1-1.5,1.5-2.3c0.2-0.2,0.3-0.5,0.4-0.7c0.5-0.7,0.9-1.5,1.3-2.3c0.2-0.3,0.3-0.6,0.5-0.9 c0.4-0.7,0.8-1.5,1.1-2.2c0.2-0.3,0.3-0.7,0.5-1c0.3-0.7,0.7-1.4,1-2.1c0.2-0.4,0.3-0.8,0.5-1.2c0.3-0.7,0.6-1.4,0.8-2.1 c0.2-0.4,0.3-0.9,0.5-1.3c0.2-0.7,0.5-1.3,0.7-2c0.2-0.5,0.3-1,0.4-1.5c0.2-0.6,0.4-1.3,0.6-1.9c0.1-0.5,0.3-1.1,0.4-1.7 c0.1-0.6,0.3-1.2,0.4-1.8c0.1-0.6,0.2-1.2,0.3-1.8c0.1-0.6,0.2-1.1,0.3-1.7c0.1-0.7,0.2-1.4,0.3-2c0.1-0.5,0.1-1,0.2-1.6 c0.1-0.8,0.1-1.6,0.2-2.4c0-0.4,0.1-0.8,0.1-1.3c0.1-1.2,0.1-2.5,0.1-3.7s0-2.5-0.1-3.7c0-0.4-0.1-0.8-0.1-1.3 c-0.1-0.8-0.1-1.6-0.2-2.4c-0.1-0.5-0.1-1-0.2-1.6c-0.1-0.7-0.2-1.4-0.3-2c-0.1-0.6-0.2-1.1-0.3-1.7c-0.1-0.6-0.2-1.2-0.3-1.8 c-0.1-0.6-0.3-1.2-0.4-1.8c-0.1-0.6-0.2-1.1-0.4-1.7c-0.2-0.6-0.4-1.3-0.6-1.9c-0.1-0.5-0.3-1-0.4-1.5c-0.2-0.7-0.5-1.3-0.7-2 c-0.2-0.4-0.3-0.9-0.5-1.3c-0.3-0.7-0.6-1.4-0.8-2.1c-0.2-0.4-0.3-0.8-0.5-1.2c-0.3-0.7-0.7-1.4-1-2.1c-0.2-0.3-0.3-0.7-0.5-1 c-0.4-0.7-0.8-1.5-1.1-2.2c-0.2-0.3-0.3-0.6-0.5-0.9c-0.4-0.8-0.9-1.5-1.3-2.3c-0.1-0.2-0.3-0.5-0.4-0.7c-0.5-0.8-1-1.5-1.5-2.3 c-0.1-0.2-0.3-0.4-0.4-0.6c-0.5-0.8-1.1-1.6-1.7-2.3c-0.1-0.2-0.2-0.3-0.4-0.5c-0.6-0.8-1.2-1.6-1.9-2.3c-0.1-0.1-0.2-0.3-0.3-0.4 c-0.7-0.8-1.4-1.6-2.1-2.3c-0.1-0.1-0.1-0.2-0.2-0.3c-0.7-0.8-1.5-1.6-2.3-2.3c-0.1-0.1-0.1-0.1-0.2-0.2c-0.8-0.8-1.6-1.5-2.5-2.3 c0,0-0.1-0.1-0.1-0.1c-0.9-0.8-1.7-1.5-2.6-2.2c0,0,0,0,0,0c-12.7-10.3-28.9-16.5-46.6-16.7c0,0,0,0,0,0l0,0c-0.3,0-0.5,0-0.8,0 c-40.9,0-74.1,32.3-74.1,72.1S1286.5,736.8,1327.4,736.8z" style="fill: inherit;"/><path d="M829.4,312.2c20.1,0,38.4-7.8,51.7-20.5c0.1-0.1,0.1-0.1,0.2-0.2c0.7-0.7,1.3-1.3,2-2c0.1-0.1,0.3-0.3,0.4-0.4 c0.6-0.6,1.2-1.3,1.7-1.9c0.2-0.2,0.4-0.4,0.6-0.7c0.5-0.6,1-1.2,1.5-1.8c0.2-0.3,0.5-0.6,0.7-0.8c0.5-0.6,0.9-1.2,1.3-1.8 c0.2-0.3,0.5-0.7,0.7-1c0.4-0.6,0.8-1.2,1.2-1.7c0.2-0.4,0.5-0.7,0.7-1.1c0.4-0.6,0.7-1.1,1.1-1.7c0.2-0.4,0.5-0.8,0.7-1.2 c0.3-0.6,0.6-1.1,0.9-1.7c0.2-0.4,0.5-0.9,0.7-1.3c0.3-0.6,0.6-1.1,0.8-1.7c0.2-0.5,0.5-1,0.7-1.4c0.2-0.6,0.5-1.1,0.7-1.7 c0.2-0.5,0.4-1,0.6-1.5c0.2-0.5,0.4-1.1,0.6-1.6c0.2-0.5,0.4-1.1,0.6-1.6c0.2-0.5,0.4-1.1,0.5-1.6c0.2-0.6,0.3-1.1,0.5-1.7 c0.2-0.5,0.3-1.1,0.4-1.6c0.2-0.6,0.3-1.2,0.4-1.8c0.1-0.5,0.2-1.1,0.4-1.6c0.1-0.6,0.2-1.3,0.4-1.9c0.1-0.5,0.2-1,0.3-1.5 c0.1-0.7,0.2-1.4,0.3-2.1c0.1-0.5,0.1-1,0.2-1.4c0.1-0.8,0.1-1.6,0.2-2.4c0-0.4,0.1-0.8,0.1-1.2c0.1-1.2,0.1-2.4,0.1-3.6 s0-2.4-0.1-3.6c0-0.4-0.1-0.8-0.1-1.2c-0.1-0.8-0.1-1.6-0.2-2.4c0-0.5-0.1-1-0.2-1.4c-0.1-0.7-0.2-1.4-0.3-2.1 c-0.1-0.5-0.2-1-0.3-1.5c-0.1-0.6-0.2-1.3-0.4-1.9c-0.1-0.5-0.2-1.1-0.4-1.6c-0.1-0.6-0.3-1.2-0.4-1.8c-0.1-0.5-0.3-1.1-0.4-1.6 c-0.2-0.6-0.3-1.2-0.5-1.7c-0.2-0.5-0.4-1.1-0.5-1.6c-0.2-0.5-0.4-1.1-0.6-1.6c-0.2-0.6-0.4-1.1-0.6-1.6c-0.2-0.5-0.4-1-0.6-1.5 c-0.2-0.6-0.5-1.1-0.7-1.7c-0.2-0.5-0.4-1-0.7-1.4c-0.3-0.6-0.5-1.1-0.8-1.7c-0.2-0.5-0.5-0.9-0.7-1.3c-0.3-0.6-0.6-1.1-0.9-1.7 c-0.2-0.4-0.5-0.8-0.7-1.2c-0.3-0.6-0.7-1.1-1.1-1.7c-0.2-0.4-0.5-0.7-0.7-1.1c-0.4-0.6-0.8-1.2-1.2-1.7c-0.2-0.3-0.5-0.7-0.7-1 c-0.4-0.6-0.9-1.2-1.3-1.8c-0.2-0.3-0.4-0.6-0.7-0.8c-0.5-0.6-1-1.2-1.5-1.8c-0.2-0.2-0.4-0.4-0.6-0.7c-0.6-0.6-1.1-1.3-1.7-1.9 c-0.1-0.1-0.3-0.3-0.4-0.4c-0.7-0.7-1.3-1.3-2-2c-0.1-0.1-0.1-0.1-0.2-0.2c-13.4-12.7-31.6-20.5-51.7-20.5 c-40.9,0-74.1,32.3-74.1,72.1S788.5,312.2,829.4,312.2z" style="fill: inherit;"/><path d="M829.4,735.5c20.1,0,38.4-7.8,51.7-20.5c0.1-0.1,0.1-0.1,0.2-0.2c0.7-0.7,1.3-1.3,2-2c0.1-0.1,0.3-0.3,0.4-0.4 c0.6-0.6,1.2-1.3,1.7-1.9c0.2-0.2,0.4-0.4,0.6-0.7c0.5-0.6,1-1.2,1.5-1.8c0.2-0.3,0.5-0.6,0.7-0.8c0.5-0.6,0.9-1.2,1.3-1.8 c0.2-0.3,0.5-0.7,0.7-1c0.4-0.6,0.8-1.2,1.2-1.7c0.2-0.4,0.5-0.7,0.7-1.1c0.4-0.6,0.7-1.1,1.1-1.7c0.2-0.4,0.5-0.8,0.7-1.2 c0.3-0.6,0.6-1.1,0.9-1.7c0.2-0.4,0.5-0.9,0.7-1.3c0.3-0.6,0.6-1.1,0.8-1.7c0.2-0.5,0.5-1,0.7-1.4c0.2-0.6,0.5-1.1,0.7-1.7 c0.2-0.5,0.4-1,0.6-1.5c0.2-0.5,0.4-1.1,0.6-1.6c0.2-0.5,0.4-1.1,0.6-1.6c0.2-0.5,0.4-1.1,0.5-1.6c0.2-0.6,0.3-1.1,0.5-1.7 c0.2-0.5,0.3-1.1,0.4-1.6c0.2-0.6,0.3-1.2,0.4-1.8c0.1-0.5,0.2-1.1,0.4-1.6c0.1-0.6,0.2-1.3,0.4-1.9c0.1-0.5,0.2-1,0.3-1.5 c0.1-0.7,0.2-1.4,0.3-2.1c0.1-0.5,0.1-1,0.2-1.4c0.1-0.8,0.1-1.6,0.2-2.4c0-0.4,0.1-0.8,0.1-1.2c0.1-1.2,0.1-2.4,0.1-3.6 s0-2.4-0.1-3.6c0-0.4-0.1-0.8-0.1-1.2c-0.1-0.8-0.1-1.6-0.2-2.4c0-0.5-0.1-1-0.2-1.4c-0.1-0.7-0.2-1.4-0.3-2.1 c-0.1-0.5-0.2-1-0.3-1.5c-0.1-0.6-0.2-1.3-0.4-1.9c-0.1-0.5-0.2-1.1-0.4-1.6c-0.1-0.6-0.3-1.2-0.4-1.8c-0.1-0.5-0.3-1.1-0.4-1.6 c-0.2-0.6-0.3-1.2-0.5-1.7c-0.2-0.5-0.4-1.1-0.5-1.6c-0.2-0.5-0.4-1.1-0.6-1.6c-0.2-0.6-0.4-1.1-0.6-1.6c-0.2-0.5-0.4-1-0.6-1.5 c-0.2-0.6-0.5-1.1-0.7-1.7c-0.2-0.5-0.4-1-0.7-1.4c-0.3-0.6-0.5-1.1-0.8-1.7c-0.2-0.5-0.5-0.9-0.7-1.3c-0.3-0.6-0.6-1.1-0.9-1.7 c-0.2-0.4-0.5-0.8-0.7-1.2c-0.3-0.6-0.7-1.1-1.1-1.7c-0.2-0.4-0.5-0.7-0.7-1.1c-0.4-0.6-0.8-1.2-1.2-1.7c-0.2-0.3-0.5-0.7-0.7-1 c-0.4-0.6-0.9-1.2-1.3-1.8c-0.2-0.3-0.4-0.6-0.7-0.8c-0.5-0.6-1-1.2-1.5-1.8c-0.2-0.2-0.4-0.4-0.6-0.7c-0.6-0.6-1.1-1.3-1.7-1.9 c-0.1-0.1-0.3-0.3-0.4-0.4c-0.7-0.7-1.3-1.3-2-2c-0.1-0.1-0.1-0.1-0.2-0.2c-13.4-12.7-31.6-20.5-51.7-20.5 c-40.9,0-74.1,32.3-74.1,72.1S788.5,735.5,829.4,735.5z" style="fill: inherit;"/><path d="M336.5,735.5c20.1,0,38.4-7.8,51.7-20.5c0.1-0.1,0.1-0.1,0.2-0.2c0.7-0.7,1.3-1.3,2-2c0.1-0.1,0.3-0.3,0.4-0.4 c0.6-0.6,1.2-1.3,1.7-1.9c0.2-0.2,0.4-0.4,0.6-0.7c0.5-0.6,1-1.2,1.5-1.8c0.2-0.3,0.5-0.6,0.7-0.8c0.5-0.6,0.9-1.2,1.3-1.8 c0.2-0.3,0.5-0.7,0.7-1c0.4-0.6,0.8-1.2,1.2-1.7c0.2-0.4,0.5-0.7,0.7-1.1c0.4-0.6,0.7-1.1,1.1-1.7c0.2-0.4,0.5-0.8,0.7-1.2 c0.3-0.6,0.6-1.1,0.9-1.7c0.2-0.4,0.5-0.9,0.7-1.3c0.3-0.6,0.6-1.1,0.8-1.7c0.2-0.5,0.5-1,0.7-1.4c0.2-0.6,0.5-1.1,0.7-1.7 c0.2-0.5,0.4-1,0.6-1.5c0.2-0.5,0.4-1.1,0.6-1.6c0.2-0.5,0.4-1.1,0.6-1.6c0.2-0.5,0.4-1.1,0.5-1.6c0.2-0.6,0.3-1.1,0.5-1.7 c0.2-0.5,0.3-1.1,0.4-1.6c0.2-0.6,0.3-1.2,0.4-1.8c0.1-0.5,0.2-1.1,0.4-1.6c0.1-0.6,0.2-1.3,0.4-1.9c0.1-0.5,0.2-1,0.3-1.5 c0.1-0.7,0.2-1.4,0.3-2.1c0.1-0.5,0.1-1,0.2-1.4c0.1-0.8,0.1-1.6,0.2-2.4c0-0.4,0.1-0.8,0.1-1.2c0.1-1.2,0.1-2.4,0.1-3.6 s0-2.4-0.1-3.6c0-0.4-0.1-0.8-0.1-1.2c-0.1-0.8-0.1-1.6-0.2-2.4c0-0.5-0.1-1-0.2-1.4c-0.1-0.7-0.2-1.4-0.3-2.1 c-0.1-0.5-0.2-1-0.3-1.5c-0.1-0.6-0.2-1.3-0.4-1.9c-0.1-0.5-0.2-1.1-0.4-1.6c-0.1-0.6-0.3-1.2-0.4-1.8c-0.1-0.5-0.3-1.1-0.4-1.6 c-0.2-0.6-0.3-1.2-0.5-1.7c-0.2-0.5-0.4-1.1-0.5-1.6c-0.2-0.5-0.4-1.1-0.6-1.6c-0.2-0.6-0.4-1.1-0.6-1.6c-0.2-0.5-0.4-1-0.6-1.5 c-0.2-0.6-0.5-1.1-0.7-1.7c-0.2-0.5-0.4-1-0.7-1.4c-0.3-0.6-0.5-1.1-0.8-1.7c-0.2-0.5-0.5-0.9-0.7-1.3c-0.3-0.6-0.6-1.1-0.9-1.7 c-0.2-0.4-0.5-0.8-0.7-1.2c-0.3-0.6-0.7-1.1-1.1-1.7c-0.2-0.4-0.5-0.7-0.7-1.1c-0.4-0.6-0.8-1.2-1.2-1.7c-0.2-0.3-0.5-0.7-0.7-1 c-0.4-0.6-0.9-1.2-1.3-1.8c-0.2-0.3-0.4-0.6-0.7-0.8c-0.5-0.6-1-1.2-1.5-1.8c-0.2-0.2-0.4-0.4-0.6-0.7c-0.6-0.6-1.1-1.3-1.7-1.9 c-0.1-0.1-0.3-0.3-0.4-0.4c-0.7-0.7-1.3-1.3-2-2c-0.1-0.1-0.1-0.1-0.2-0.2c-13.4-12.7-31.6-20.5-51.7-20.5 c-40.9,0-74.1,32.3-74.1,72.1S295.6,735.5,336.5,735.5z" style="fill: inherit;"/><path d="M1518.8,0H147C65.8,0,0,65.8,0,147v803.5c0,61.2,37.4,113.6,90.5,135.7c17.4,7.2,36.5,11.2,56.5,11.2h571.6v128h-314v94.6 h856.5v-94.6h-314v-128h571.6c20.1,0,39.2-4,56.7-11.3c53-22.2,90.3-74.6,90.3-135.6V147C1665.7,65.8,1599.9,0,1518.8,0z M832.9,28c17.4,0,31.6,14.1,31.6,31.6s-14.1,31.6-31.6,31.6S801.3,77,801.3,59.6S815.4,28,832.9,28z M359.6,1063.8 c-12.6,0-22.7-10.2-22.7-22.7s10.2-22.7,22.7-22.7s22.7,10.2,22.7,22.7S372.1,1063.8,359.6,1063.8z M419.4,1063.8 c-16.8,0-30.4-13.6-30.4-30.4c0-16.8,13.6-30.4,30.4-30.4c16.8,0,30.4,13.6,30.4,30.4C449.9,1050.1,436.2,1063.8,419.4,1063.8z M571.3,964.3H465.3v-94.2h-0.1c0-4.6,0-9.2,0-13.8c0-53.7-42.5-97.2-94.8-97.2h-28.1h-39.6c-52.4,0-94.9,43.5-94.9,97.2 c0,4.6,0,9.2,0,13.8v84.3c-54.9-21.3-93.9-74.6-93.9-137.1v-264h457.4V964.3z M571.3,544.1H465.5v-97.4h-0.1c0-4.6,0-9.2,0-13.8 c0-53.7-42.5-97.2-94.8-97.2h-29h-38.8c-52.4,0-94.9,43.5-94.9,97.2c0,4.6,0,9.2,0,13.8v97.4h-94.1v-264c0-81.2,65.8-147,147-147 h310.5V544.1z M1085.2,964.3H958.1v-94.2H958c0-4.6,0-9.2,0-13.8c0-53.7-42.5-97.2-94.8-97.2h-28.1h-39.6 c-52.4,0-94.9,43.5-94.9,97.2c0,4.6,0,9.2,0,13.8v94.2H580.5v-411h504.8V964.3z M1085.2,544.1H958.1v-97.4H958c0-4.6,0-9.2,0-13.8 c0-53.7-42.5-97.2-94.8-97.2h-28.1h-39.6c-52.4,0-94.9,43.5-94.9,97.2c0,4.6,0,9.2,0,13.8v97.4H580.5v-411h504.8V544.1z M1551.8,817.3c0,64.7-41.7,119.5-99.8,139.2v-85.2h-0.1c0-4.6,0-9.2,0-13.8c0-53.7-42.5-97.2-94.8-97.2h-29h-38.8 c-52.4,0-94.9,43.5-94.9,97.2c0,4.6,0,9.2,0,13.8v92.9h-99.4v-411h456.6V817.3z M1551.8,544.1h-99.8v-97.4h-0.1 c0-4.6,0-9.2,0-13.8c0-53.7-42.5-97.2-94.8-97.2h-29h-38.8c-52.4,0-94.9,43.5-94.9,97.2c0,4.6,0,9.2,0,13.8v97.4h-99.4v-411h309.6 c81.2,0,147,65.8,147,147V544.1z" style="fill: inherit;"/><path d="M1382.7,288.1c0.7-0.8,1.4-1.6,2.1-2.3c0.1-0.1,0.2-0.2,0.3-0.4c0.6-0.8,1.3-1.5,1.9-2.3c0.1-0.2,0.2-0.3,0.4-0.5 c0.6-0.8,1.1-1.5,1.7-2.3c0.1-0.2,0.3-0.4,0.4-0.6c0.5-0.8,1-1.5,1.5-2.3c0.2-0.2,0.3-0.5,0.4-0.7c0.5-0.7,0.9-1.5,1.3-2.3 c0.2-0.3,0.3-0.6,0.5-0.9c0.4-0.7,0.8-1.5,1.1-2.2c0.2-0.3,0.3-0.7,0.5-1c0.3-0.7,0.7-1.4,1-2.1c0.2-0.4,0.3-0.8,0.5-1.2 c0.3-0.7,0.6-1.4,0.8-2.1c0.2-0.4,0.3-0.9,0.5-1.3c0.2-0.7,0.5-1.3,0.7-2c0.2-0.5,0.3-1,0.4-1.5c0.2-0.6,0.4-1.3,0.6-1.9 c0.1-0.5,0.3-1.1,0.4-1.7c0.1-0.6,0.3-1.2,0.4-1.8c0.1-0.6,0.2-1.2,0.3-1.8c0.1-0.6,0.2-1.1,0.3-1.7c0.1-0.7,0.2-1.4,0.3-2 c0.1-0.5,0.1-1,0.2-1.6c0.1-0.8,0.1-1.6,0.2-2.4c0-0.4,0.1-0.8,0.1-1.3c0.1-1.2,0.1-2.5,0.1-3.7s0-2.5-0.1-3.7 c0-0.4-0.1-0.8-0.1-1.3c-0.1-0.8-0.1-1.6-0.2-2.4c-0.1-0.5-0.1-1-0.2-1.6c-0.1-0.7-0.2-1.4-0.3-2c-0.1-0.6-0.2-1.1-0.3-1.7 c-0.1-0.6-0.2-1.2-0.3-1.8c-0.1-0.6-0.3-1.2-0.4-1.8c-0.1-0.5-0.2-1.1-0.4-1.7c-0.2-0.6-0.4-1.3-0.6-1.9c-0.1-0.5-0.3-1-0.4-1.5 c-0.2-0.7-0.5-1.3-0.7-2c-0.2-0.4-0.3-0.9-0.5-1.3c-0.3-0.7-0.6-1.4-0.8-2.1c-0.2-0.4-0.3-0.8-0.5-1.2c-0.3-0.7-0.7-1.4-1-2.1 c-0.2-0.3-0.3-0.7-0.5-1c-0.4-0.7-0.8-1.5-1.1-2.2c-0.2-0.3-0.3-0.6-0.5-0.9c-0.4-0.8-0.9-1.5-1.3-2.3c-0.1-0.2-0.3-0.5-0.4-0.7 c-0.5-0.8-1-1.5-1.5-2.3c-0.1-0.2-0.3-0.4-0.4-0.6c-0.5-0.8-1.1-1.6-1.7-2.3c-0.1-0.2-0.2-0.3-0.4-0.5c-0.6-0.8-1.2-1.6-1.9-2.3 c-0.1-0.1-0.2-0.2-0.3-0.4c-0.7-0.8-1.4-1.6-2.1-2.3c-0.1-0.1-0.1-0.2-0.2-0.3c-0.7-0.8-1.5-1.6-2.3-2.3c-0.1-0.1-0.1-0.1-0.2-0.2 c-0.8-0.8-1.6-1.5-2.5-2.3c0,0-0.1-0.1-0.1-0.1c-0.9-0.8-1.7-1.5-2.6-2.2c0,0,0,0,0,0c-12.8-10.4-29.4-16.7-47.4-16.7 c-40.9,0-74.1,32.3-74.1,72.1s33.2,72.1,74.1,72.1c18,0,34.6-6.3,47.4-16.7c0,0,0,0,0,0c0.9-0.7,1.8-1.5,2.6-2.2 c0,0,0.1-0.1,0.1-0.1c0.8-0.7,1.7-1.5,2.4-2.3c0.1-0.1,0.1-0.1,0.2-0.2c0.8-0.8,1.5-1.5,2.3-2.3 C1382.5,288.3,1382.6,288.2,1382.7,288.1z" style="fill: inherit;"/></g></g></svg>