<svg xmlns="http://www.w3.org/2000/svg" xmlns:xlink="http://www.w3.org/1999/xlink" preserveAspectRatio="xMidYMid meet" version="1.0" viewBox="4.4 2.0 113.3 52.3" zoomAndPan="magnify" style="fill: rgb(253, 209, 163);" original_string_length="2366"><g id="__id328_szjpss7gdm"><path d="m53.455 29.821c-2.689 1.191-5.249 3.943-7.331 7.739-2.591 4.726-4.284 10.87-4.554 16.73h34.812c-0.32498-5.737-1.991-11.718-4.523-16.335-1.944-3.545-4.305-6.172-6.8-7.475-0.009003-0.003967-0.02298 0.004028-0.031006 0-1.562 0.66003-3.239 1.054-5.022 1.054-2.36 0-4.581-0.643-6.551-1.713z" style="fill: inherit;"/></g><g id="__id329_szjpss7gdm"><path d="m25.88 30.743c-4.997 4.884-8.776 14.345-9.514 23.547h22.21c0.267-6.443 2.077-13.054 4.959-18.311 0.125-0.22699 0.27701-0.435 0.40601-0.65802-0.824-1.362-1.736-2.592-2.683-3.656-2.052 1.359-4.425 2.273-7.018 2.273-3.175 0-6.067-1.232-8.36-3.195z" style="fill: inherit;"/></g><g id="__id330_szjpss7gdm"><path d="m83.993 32.752c-2.624 2.565-4.878 6.539-6.457 11.032 1.038 3.373 1.692 6.963 1.872 10.506h26.452c-0.634-7.939-3.635-16.038-7.767-20.682-1.885 1.248-4.045 2.108-6.426 2.108-2.915 0-5.568-1.162-7.674-2.964z" style="fill: inherit;"/></g><g id="__id331_szjpss7gdm"><path d="m60.016 1.979c-6.17 0-11.168 5.244-11.168 11.757 0 6.514 4.998 11.79 11.168 11.79 6.169 0 11.136-5.276 11.136-11.79 0-6.513-4.967-11.757-11.136-11.757z" style="fill: inherit;"/></g><g id="__id332_szjpss7gdm"><rect height="26.798" rx="2.918" ry="2.918" transform="matrix(-.82533 -.56465 .54841 -.83621 0 0)" width="6.284" x="-36.329" y="-37.195" style="fill: inherit;"/></g><g id="__id333_szjpss7gdm"><path d="m91.679 10.674c-5.148 0-9.319 4.375-9.319 9.811 0 5.435 4.171 9.838 9.319 9.838s9.293-4.403 9.293-9.838c0-5.436-4.145-9.811-9.293-9.811z" style="fill: inherit;"/></g><g id="__id334_szjpss7gdm"><path d="m34.257 6.869c-5.608 0-10.15 4.766-10.15 10.686 0 5.919 4.542 10.715 10.15 10.715 5.607 0 10.121-4.796 10.121-10.715 0-5.92-4.514-10.686-10.121-10.686z" style="fill: inherit;"/></g><g id="__id335_szjpss7gdm"><rect height="23.464" rx="2.865" ry="2.918" transform="matrix(.82533 -.56465 -.54841 -.83621 0 0)" width="5.73" x="65.998" y="-106.74" style="fill: inherit;"/></g><g id="__id336_szjpss7gdm"><path d="m73.98 27.332c-0.548-0.004944-1.1 0.159-1.591 0.49402l-0.468 0.33c-1.307 0.89398-1.635 2.698-0.74799 4.05l5.147 7.871c0.38599-0.85004 0.81198-1.675 1.248-2.47 0.703-1.282 1.476-2.483 2.308-3.589l-3.525-5.368c-0.55399-0.84503-1.456-1.309-2.371-1.318z" style="fill: inherit;"/></g></svg>