<svg xmlns="http://www.w3.org/2000/svg" xmlns:xlink="http://www.w3.org/1999/xlink" preserveAspectRatio="xMidYMid meet" version="1.0" viewBox="245.3 245.2 1962.0 1962.0" zoomAndPan="magnify" style="fill: rgb(0, 0, 0);" original_string_length="6236"><g id="__id316_szjpss7gdm"><path d="M 1226.328125 2153.949219 C 714.761719 2153.949219 298.5625 1737.699219 298.5625 1226.261719 C 298.5625 888.335938 480.285156 591.980469 751.125 429.792969 C 761.417969 437.347656 774.335938 442.496094 790.8125 442.496094 C 790.8125 442.496094 808.605469 442.496094 694.914062 531.300781 C 581.171875 620.214844 591.773438 743.46875 627.300781 665.886719 C 662.898438 588.199219 694.914062 616.652344 638.015625 726.878906 C 581.171875 837.121094 667.941406 801.519531 697.332031 869.023438 C 726.875 936.527344 737.535156 854.847656 751.703125 982.828125 C 751.703125 982.828125 787.394531 1025.441406 851.277344 1004.128906 C 915.253906 982.828125 840.621094 1060.90625 773.078125 1124.964844 C 705.519531 1188.992188 726.820312 1210.203125 762.417969 1249.351562 C 797.945312 1288.511719 812.222656 1320.421875 780.207031 1363.140625 C 748.25 1405.761719 829.960938 1419.941406 851.277344 1444.820312 C 872.597656 1469.703125 869.011719 1551.492188 819.300781 1587.070312 C 769.605469 1622.542969 844.183594 1700.761719 833.433594 1810.992188 C 822.773438 1921.101562 825.394531 1967.300781 875.636719 1974.429688 C 925.914062 1981.558594 869.011719 1878.480469 890.335938 1832.292969 C 911.6875 1786.109375 936.628906 1864.3125 986.34375 1739.902344 C 986.34375 1739.902344 1075.277344 1761.222656 1114.21875 1626.121094 C 1114.21875 1626.121094 1192.429688 1615.410156 1206.699219 1572.792969 C 1220.976562 1530.171875 1203.136719 1501.722656 1316.828125 1409.332031 C 1430.511719 1316.851562 1238.628906 1245.78125 1135.636719 1242.222656 C 1135.636719 1242.222656 1097.847656 1257.644531 1164.078125 1139.132812 C 1192.949219 1087.382812 1107.175781 1100.074219 1085.878906 1053.894531 C 1064.558594 1007.691406 1014.808594 954.375 915.253906 964.980469 C 815.734375 975.675781 787.191406 1011.277344 783.773438 950.789062 C 780.207031 890.324219 826.339844 861.984375 776.589844 854.847656 C 726.875 847.695312 751.703125 844.136719 805.148438 794.371094 C 805.148438 794.371094 773.078125 772.960938 741.097656 805.082031 C 709.082031 837.121094 652.183594 787.34375 719.746094 716.277344 C 787.394531 645.101562 893.898438 591.761719 886.804688 726.878906 C 879.726562 861.984375 929.480469 665.886719 929.480469 665.886719 C 929.480469 665.886719 1004.117188 570.460938 1096.578125 563.421875 C 1188.855469 556.296875 1132.066406 552.722656 1132.066406 520.695312 C 1132.066406 488.792969 1174.6875 574.023438 1226.328125 552.722656 C 1277.769531 531.300781 1171.117188 524.285156 1181.835938 488.792969 C 1192.429688 453.207031 1252.996094 463.808594 1277.769531 510.105469 C 1302.65625 556.296875 1331.109375 485.21875 1267.167969 410.484375 C 1203.136719 335.9375 1213.847656 382.140625 1153.386719 414.042969 C 1093.007812 446.054688 1117.898438 463.808594 1107.175781 410.484375 C 1096.578125 357.25 1093.007812 414.042969 1064.558594 385.703125 C 1036.019531 357.25 1115.277344 370.371094 1156.949219 374.988281 C 1198.628906 379.5 1185.398438 350.101562 1185.398438 350.101562 L 1226.328125 332.375 C 1226.328125 332.375 1252.996094 371.429688 1284.917969 364.292969 C 1316.828125 357.25 1263.597656 307.390625 1295.507812 314.527344 C 1327.535156 321.648438 1370.15625 293.226562 1373.730469 335.9375 C 1377.292969 378.550781 1348.835938 435.453125 1466.207031 371.429688 C 1489.945312 358.511719 1505.789062 350.101562 1516.582031 345.078125 C 1524.582031 347.703125 1532.34375 350.4375 1540.210938 353.363281 C 1540.941406 361.867188 1543.675781 372.90625 1558.597656 382.140625 C 1604.777344 410.484375 1590.613281 385.59375 1650.964844 421.195312 C 1711.441406 456.78125 1672.28125 495.835938 1718.46875 502.957031 C 1764.660156 510.105469 1807.382812 574.023438 1771.917969 577.597656 C 1736.316406 581.160156 1732.742188 538.558594 1679.523438 531.300781 C 1626.089844 524.285156 1700.851562 549.050781 1736.316406 581.160156 C 1771.917969 613.089844 1771.917969 650.992188 1736.316406 665.886719 C 1700.851562 680.703125 1727.082031 762.464844 1785.027344 751.769531 C 1842.984375 741.058594 1821.5625 680.703125 1853.558594 694.960938 C 1885.601562 709.125 1874.886719 744.617188 1928.226562 766.027344 C 1981.648438 787.34375 1921.078125 815.683594 1985.128906 819.246094 C 2049.152344 822.835938 2081.058594 847.695312 2024.167969 872.585938 C 1967.28125 897.582031 1995.8125 918.777344 1945.953125 858.3125 C 1896.203125 797.957031 1901.132812 855.792969 1896.203125 797.957031 C 1891.367188 740.109375 1810.972656 794.371094 1768.332031 801.519531 C 1725.621094 808.644531 1761.195312 851.273438 1722.03125 858.3125 C 1682.882812 865.464844 1665.15625 854.847656 1675.84375 947.226562 C 1686.457031 1039.730469 1661.675781 1060.90625 1618.941406 1060.90625 C 1576.324219 1060.90625 1654.636719 1110.683594 1675.84375 1174.710938 C 1697.167969 1238.652344 1700.851562 1277.792969 1793.21875 1252.933594 C 1885.601562 1228.042969 1857.136719 1228.042969 1867.847656 1277.792969 C 1878.449219 1327.5625 1917.613281 1249.351562 1924.652344 1299.113281 C 1931.789062 1348.863281 1835.835938 1359.582031 1889.054688 1391.484375 C 1942.394531 1423.414062 1903.449219 1498.152344 1878.449219 1515.890625 C 1853.558594 1533.730469 1871.328125 1597.5625 1818.09375 1626.121094 C 1764.660156 1654.570312 1842.984375 1704.210938 1810.972656 1736.339844 C 1779.042969 1768.351562 1693.609375 1807.410156 1725.621094 1885.632812 C 1757.726562 1963.722656 1757.726562 1917.53125 1825.230469 1860.628906 C 1892.628906 1803.84375 1949.636719 1707.890625 1981.648438 1711.460938 C 1993.09375 1712.730469 1998.550781 1721.640625 2005.359375 1729.210938 C 1839.84375 1984.621094 1552.492188 2153.949219 1226.328125 2153.949219 Z M 1226.328125 245.234375 C 685.3125 245.234375 245.25 685.292969 245.25 1226.261719 C 245.25 1767.101562 685.3125 2207.269531 1226.328125 2207.269531 C 1767.191406 2207.269531 2207.25 1767.101562 2207.25 1226.261719 C 2207.25 685.292969 1767.191406 245.234375 1226.328125 245.234375" style="fill: rgb(253, 209, 163);"/></g></svg>